<?xml version="1.0"?>
<svg xmlns="http://www.w3.org/2000/svg" xmlns:xlink="http://www.w3.org/1999/xlink" version="1.1" viewBox="0 0 224 224" width="50px" height="50px"><g fill="none" fill-rule="nonzero" stroke="none" stroke-width="1" stroke-linecap="butt" stroke-linejoin="miter" stroke-miterlimit="10" stroke-dasharray="" stroke-dashoffset="0" font-family="none" font-weight="none" font-size="none" text-anchor="none" style="mix-blend-mode: normal"><path d="M0,224v-224h224v224z" fill="none"/><g fill="#cccccc"><g id="surface1"><path d="M73.36,-0.14c-0.1925,0.035 -0.385,0.0875 -0.56,0.14c-1.47,0.3325 -2.6775,1.365 -3.22,2.7825c-0.5425,1.4175 -0.3325,2.9925 0.56,4.2175l9.52,14.28c-16.1175,8.47 -27.685,23.0825 -30.38,40.46c0,0.0525 0,0.0875 0,0.14c0,0.0525 0,0.0875 0,0.14c0,0.14 0,0.28 0,0.42c0,0.0875 0,0.1925 0,0.28c-0.0175,0.2275 -0.0175,0.4725 0,0.7v6.3c-2.66,-1.5575 -5.67,-2.52 -8.96,-2.52c-9.8525,0 -17.92,8.0675 -17.92,17.92v53.76c0,9.8525 8.0675,17.92 17.92,17.92c3.29,0 6.3,-0.9625 8.96,-2.52v11.48c0,7.3675 6.0725,13.44 13.44,13.44h4.48v26.88c0,9.8525 8.0675,17.92 17.92,17.92c9.8525,0 17.92,-8.0675 17.92,-17.92v-26.88h17.92v26.88c0,9.8525 8.0675,17.92 17.92,17.92c9.8525,0 17.92,-8.0675 17.92,-17.92v-26.88h4.48c7.3675,0 13.44,-6.0725 13.44,-13.44v-11.48c2.66,1.5575 5.67,2.52 8.96,2.52c9.8525,0 17.92,-8.0675 17.92,-17.92v-53.76c0,-9.8525 -8.0675,-17.92 -17.92,-17.92c-3.29,0 -6.3,0.9625 -8.96,2.52v-6.16c0.0525,-0.42 0.0525,-0.84 0,-1.26c0,-0.0525 0,-0.0875 0,-0.14c0,-0.0525 0,-0.0875 0,-0.14c-2.6075,-17.5 -14.175,-32.235 -30.38,-40.74l9.52,-14.28c1.1025,-1.505 1.1375,-3.535 0.105,-5.0925c-1.015,-1.5575 -2.905,-2.3275 -4.725,-1.9075c-1.155,0.2625 -2.17,0.9625 -2.8,1.96l-10.5,15.54c-7.385,-2.66 -15.505,-4.06 -23.94,-4.06c-8.435,0 -16.555,1.4 -23.94,4.06l-10.5,-15.54c-0.8925,-1.435 -2.52,-2.24 -4.2,-2.1zM112,22.4c8.4175,0 16.31,1.645 23.24,4.62c0.14,0.0525 0.28,0.105 0.42,0.14c14.0175,6.1425 24.22,17.64 28.14,31.08h-103.6c3.8675,-13.2475 13.86,-24.605 27.58,-30.8c0.2975,-0.105 0.5775,-0.245 0.84,-0.42c6.965,-3.01 14.91,-4.62 23.38,-4.62zM87.36,35.84c-3.7275,0 -6.72,3.01 -6.72,6.72c0,3.7275 2.9925,6.72 6.72,6.72c3.71,0 6.72,-2.9925 6.72,-6.72c0,-3.71 -3.01,-6.72 -6.72,-6.72zM136.64,35.84c-3.71,0 -6.72,3.01 -6.72,6.72c0,3.7275 3.01,6.72 6.72,6.72c3.7275,0 6.72,-2.9925 6.72,-6.72c0,-3.71 -2.9925,-6.72 -6.72,-6.72zM58.24,67.2h107.52v98.56c0,2.52 -1.96,4.48 -4.48,4.48h-35c-0.595,-0.1225 -1.225,-0.1225 -1.82,0h-51.94c-0.595,-0.1225 -1.225,-0.1225 -1.82,0h-7.98c-2.52,0 -4.48,-1.96 -4.48,-4.48zM40.32,76.16c5.005,0 8.96,3.955 8.96,8.96v53.76c0,5.005 -3.955,8.96 -8.96,8.96c-5.005,0 -8.96,-3.955 -8.96,-8.96v-53.76c0,-5.005 3.955,-8.96 8.96,-8.96zM183.68,76.16c5.005,0 8.96,3.955 8.96,8.96v53.76c0,5.005 -3.955,8.96 -8.96,8.96c-5.005,0 -8.96,-3.955 -8.96,-8.96v-53.76c0,-5.005 3.955,-8.96 8.96,-8.96zM76.16,179.2h17.92v26.88c0,5.005 -3.955,8.96 -8.96,8.96c-5.005,0 -8.96,-3.955 -8.96,-8.96zM129.92,179.2h17.92v26.88c0,5.005 -3.955,8.96 -8.96,8.96c-5.005,0 -8.96,-3.955 -8.96,-8.96z"/></g></g></g></svg>
